<svg width="183" height="74" viewBox="0 0 183 74" fill="none" xmlns="http://www.w3.org/2000/svg">
<g clip-path="url(#clip0_102_34)">
<path d="M103.885 27.9141V37.1056H91.3988V27.9141H89.6968V28.027V48.0031H91.3988V38.6947H103.885V48.0031H105.587V27.9141H103.885Z" fill="white" fill-opacity="0.8"/>
<path d="M131.974 29.5031H138.642C142.213 29.5031 144.227 31.135 144.231 33.7289V33.7873C144.231 36.5721 141.843 38.204 138.556 38.2117H131.974V29.5031ZM140.211 39.4892C143.495 38.9907 145.937 37.0512 145.933 33.7289V33.6744C145.938 32.2646 145.386 30.9098 144.398 29.9043C143.179 28.6852 141.189 27.9141 138.727 27.9141H130.272V48.0031H131.974V39.7735H138.303L144.628 48.0031H146.79L140.211 39.4892Z" fill="white" fill-opacity="0.8"/>
<path d="M162.758 34.1846V34.2391C162.758 37.1134 160.339 38.9985 156.686 39.0063H151.35V29.5031H156.858C160.406 29.5031 162.754 31.1077 162.758 34.1768V34.1846ZM156.971 27.9062H149.648V47.9953H151.354V40.5953H156.601C160.776 40.5953 164.452 38.4065 164.46 34.1573V34.0989C164.46 30.2041 161.375 27.9179 156.971 27.914" fill="white" fill-opacity="0.8"/>
<path d="M113.439 39.5355L117.902 29.7753L122.335 39.5355H113.439ZM118.712 27.7695H117.154L107.807 48.0222H109.591L112.146 42.3943L112.753 41.0934H123.051L123.631 42.3748L126.186 48.0027H128.056L118.712 27.7695Z" fill="white" fill-opacity="0.8"/>
<path d="M168.032 39.5355L172.487 29.7753L176.923 39.5355H168.032ZM173.301 27.7695H171.743L162.396 48.0222H164.18L166.735 42.3943L167.342 41.0934H177.64L178.248 42.3943L180.803 48.0222H182.672L173.301 27.7695Z" fill="white" fill-opacity="0.8"/>
<path d="M4.56555 54.176L21.0286 44.6689C22.0296 44.0925 22.6449 44.5716 22.976 45.1285C23.307 45.6855 23.4122 46.4644 22.4112 47.0447L5.94818 56.5479L6.56745 57.615L22.9487 48.1547C24.3041 47.3758 24.7753 46.3515 24.4053 45.1753L29.71 42.114C29.9547 42.2258 30.2287 42.2569 30.4923 42.2032C30.7559 42.149 30.9956 42.0127 31.1767 41.8137C31.3578 41.6147 31.471 41.3631 31.4999 41.0959C31.5289 40.8283 31.4721 40.5584 31.3377 40.3251C31.2034 40.0922 30.9984 39.9076 30.7525 39.7986C30.5065 39.6895 30.2322 39.6611 29.9692 39.7183C29.7062 39.7752 29.4681 39.9139 29.2891 40.1152C29.1103 40.3162 28.9998 40.5686 28.9739 40.8365L23.6576 43.9017C22.7734 42.9202 21.7102 42.8657 20.3042 43.6719L3.94629 53.1049L4.56555 54.176Z" fill="white" fill-opacity="0.8"/>
<path d="M17.5779 68.1816L27.085 51.7186C27.6614 50.7215 28.4365 50.8267 28.9895 51.1461C29.5426 51.4654 30.0333 52.0925 29.4569 53.0934L19.9537 69.5526L21.0248 70.1719L30.4812 53.7867C31.2602 52.4313 31.1589 51.3097 30.2514 50.4762L33.3127 45.1793C33.5807 45.1544 33.8339 45.045 34.0357 44.867C34.2375 44.689 34.3775 44.4514 34.4354 44.1885C34.4934 43.9256 34.4663 43.651 34.3581 43.4045C34.2498 43.158 34.0661 42.9523 33.8334 42.8172C33.6007 42.682 33.3309 42.6244 33.0633 42.6524C32.7955 42.6805 32.5437 42.7926 32.344 42.9734C32.1443 43.1537 32.0072 43.3928 31.9524 43.6565C31.8976 43.9202 31.9279 44.1944 32.0391 44.4393L28.9895 49.7479C27.7315 49.3584 26.7695 49.8296 25.9672 51.2201L16.5264 67.5663L17.5779 68.1816Z" fill="white" fill-opacity="0.8"/>
<path d="M35.8523 73.8092V54.799C35.8523 53.6306 36.5767 53.3501 37.2194 53.3501C37.862 53.3501 38.5942 53.6461 38.5942 54.799V73.8092H39.8288V54.8925C39.8288 53.3346 39.1745 52.4076 37.975 52.1389V46.0125C38.1398 45.8964 38.2743 45.7426 38.3671 45.5634C38.46 45.3846 38.5085 45.186 38.5085 44.9842C38.5092 44.7665 38.4537 44.5523 38.3477 44.3623C38.2416 44.1722 38.0884 44.0125 37.9029 43.8984C37.7173 43.7847 37.5056 43.7204 37.288 43.7118C37.0704 43.7037 36.8544 43.7512 36.6606 43.8505C36.4667 43.9494 36.3017 44.097 36.1812 44.2781C36.0607 44.4596 35.9889 44.6688 35.9727 44.8861C35.9565 45.103 35.9963 45.3208 36.0885 45.5182C36.1806 45.7153 36.3219 45.8855 36.4988 46.0125V52.1467C35.2058 52.4271 34.6216 53.3151 34.6216 54.9353V73.8092H35.8523Z" fill="white" fill-opacity="0.8"/>
<path d="M54.4924 69.5446L44.9893 53.0815C44.4129 52.0845 44.8919 51.4652 45.445 51.1342C45.998 50.8031 46.7848 50.6979 47.3612 51.6989L56.8643 68.1581L57.9354 67.5427L48.4634 51.1731C47.6844 49.8177 46.6523 49.3465 45.48 49.7165L42.4304 44.4002C42.522 44.2023 42.5605 43.9838 42.5434 43.7665C42.5259 43.5492 42.4526 43.34 42.3307 43.1589C42.2088 42.9782 42.0425 42.8317 41.8478 42.7336C41.653 42.6358 41.4361 42.5899 41.2184 42.6C41.0007 42.6101 40.7888 42.6763 40.6042 42.792C40.4192 42.9077 40.2673 43.0689 40.1629 43.2602C40.0585 43.4518 40.0052 43.6668 40.0079 43.8849C40.011 44.103 40.0698 44.3168 40.1793 44.5053C40.2786 44.681 40.4192 44.8297 40.589 44.9388C40.7584 45.0479 40.952 45.1144 41.153 45.1324L44.222 50.4487C43.2405 51.3367 43.186 52.3961 43.9883 53.8021L53.4253 70.1599L54.4924 69.5446Z" fill="white" fill-opacity="0.8"/>
<path d="M68.5014 56.5317L52.0423 47.0286C51.0413 46.4482 51.1465 45.6771 51.4659 45.1201C51.7852 44.5632 52.4123 44.0764 53.4132 44.6567L69.8841 54.1559L70.4995 53.0888L54.1065 43.6207C52.7511 42.8417 51.6256 42.9469 50.796 43.8543L45.4913 40.7931C45.4664 40.5251 45.357 40.272 45.179 40.0702C45.001 39.8681 44.7634 39.7283 44.5005 39.6702C44.2376 39.6126 43.963 39.6395 43.7165 39.7477C43.4704 39.856 43.2647 40.0398 43.1292 40.2724C42.994 40.5053 42.9364 40.7748 42.9644 41.0423C42.9925 41.3103 43.1046 41.5619 43.2854 41.7617C43.4657 41.9615 43.7052 42.0986 43.9685 42.1535C44.2322 42.208 44.5064 42.1777 44.7513 42.0667L50.0677 45.1318C49.6587 46.3937 50.1494 47.3557 51.5399 48.1541L67.8978 57.5911L68.5014 56.5317Z" fill="white" fill-opacity="0.8"/>
<path d="M74.1255 38.2616H55.1192C53.9508 38.2616 53.6703 37.5372 53.6703 36.8907C53.6703 36.2442 53.9663 35.5159 55.1192 35.5159H74.1255V34.2734H55.2088C53.6509 34.2734 52.7239 34.9239 52.4591 36.1273H46.3327C46.1769 35.9092 45.9557 35.7462 45.7009 35.6619C45.4466 35.5776 45.1716 35.5762 44.9165 35.6581C44.661 35.74 44.4383 35.9008 44.2805 36.1174C44.1224 36.3341 44.0371 36.5953 44.0371 36.8634C44.0371 37.1316 44.1224 37.3928 44.2805 37.6094C44.4383 37.8261 44.661 37.9869 44.9165 38.0688C45.1716 38.1506 45.4466 38.1493 45.7009 38.065C45.9557 37.9806 46.1769 37.8177 46.3327 37.5995H52.4669C52.7434 38.8926 53.6353 39.4807 55.2516 39.4807H74.1255V38.2616Z" fill="white" fill-opacity="0.8"/>
<path d="M69.8607 19.6217L53.4016 29.1248C52.4006 29.7012 51.7853 29.2222 51.4542 28.6652C51.1231 28.1083 51.0219 27.3254 52.0228 26.749L68.4859 17.2459L67.8666 16.1787L51.4854 25.6351C50.1261 26.4141 49.6587 27.4462 50.0287 28.6185L44.7241 31.6837C44.5259 31.5927 44.3078 31.5542 44.0904 31.5721C43.8731 31.59 43.664 31.6635 43.4832 31.7856C43.3025 31.9077 43.1565 32.0743 43.0587 32.2693C42.9613 32.4643 42.9158 32.6812 42.9263 32.899C42.9368 33.1168 43.003 33.3282 43.1191 33.5128C43.2351 33.6975 43.3968 33.8492 43.5884 33.9532C43.78 34.0573 43.995 34.1103 44.2131 34.1071C44.4312 34.1038 44.6446 34.0445 44.8332 33.9348C45.0069 33.8334 45.1545 33.6923 45.2635 33.5231C45.3722 33.3539 45.44 33.1614 45.4602 32.9611L50.7999 29.8921C51.684 30.8736 52.7473 30.9281 54.1533 30.1258L70.5112 20.6888L69.8607 19.6217Z" fill="white" fill-opacity="0.8"/>
<path d="M56.8527 5.60839L47.3456 22.0714C46.7692 23.0724 45.998 22.9672 45.4372 22.644C44.8764 22.3207 44.3934 21.7014 44.9737 20.6966L54.4769 4.23744L53.4097 3.62207L43.9494 20.0072C43.1705 21.3626 43.2717 22.4843 44.1792 23.3139L41.1179 28.6224C40.8515 28.6485 40.5999 28.7585 40.3997 28.9367C40.1996 29.1148 40.0613 29.3518 40.0044 29.6137C39.9476 29.8755 39.9752 30.1486 40.0835 30.3937C40.1918 30.6388 40.3748 30.8432 40.6069 30.9775C40.8387 31.1118 41.107 31.169 41.3734 31.141C41.6402 31.113 41.8907 31.0012 42.0897 30.8216C42.2883 30.642 42.4254 30.404 42.4803 30.1418C42.5352 29.8796 42.5056 29.6067 42.3954 29.3624L45.4606 24.0461C46.7225 24.4355 47.6806 23.9643 48.4868 22.57L57.9198 6.21207L56.8527 5.60839Z" fill="white" fill-opacity="0.8"/>
<path d="M38.5785 0V19.0063C38.5785 20.1747 37.8542 20.4591 37.2115 20.4591C36.5689 20.4591 35.8328 20.1631 35.8328 19.0063V0H34.6021V18.9051C34.6021 20.4629 35.2564 21.3899 36.4559 21.6547V27.7773C36.2371 27.9336 36.0735 28.1555 35.9888 28.4108C35.9041 28.6661 35.9028 28.9417 35.9849 29.1979C36.067 29.4541 36.2283 29.6775 36.4456 29.8361C36.6629 29.9947 36.925 30.0801 37.194 30.0801C37.463 30.0801 37.725 29.9947 37.9423 29.8361C38.1597 29.6775 38.321 29.4541 38.4031 29.1979C38.4852 28.9417 38.4838 28.6661 38.3991 28.4108C38.3145 28.1555 38.1509 27.9336 37.932 27.7773V21.6431C39.225 21.3665 39.8092 20.4746 39.8092 18.8544V0H38.5785Z" fill="white" fill-opacity="0.8"/>
<path d="M19.9381 4.24909L29.4451 20.7121C30.0216 21.7131 29.5425 22.3285 28.9855 22.6595C28.4286 22.9906 27.6458 23.0918 27.0654 22.0909L17.5662 5.62004L16.499 6.23151L25.9554 22.6167C26.7344 23.972 27.7626 24.4433 28.9349 24.0694L32.0001 29.3779C31.9091 29.5761 31.8707 29.7944 31.8885 30.0117C31.9064 30.229 31.9799 30.4381 32.102 30.6188C32.2241 30.7994 32.3907 30.9456 32.5857 31.0432C32.7807 31.1407 32.9976 31.1865 33.2154 31.1759C33.4332 31.1653 33.6446 31.0989 33.8293 30.9829C34.0139 30.8669 34.1656 30.7053 34.2697 30.5138C34.3738 30.3221 34.4267 30.1069 34.4235 29.8889C34.4203 29.6709 34.361 29.4573 34.2512 29.2689C34.1518 29.0934 34.0112 28.9446 33.8416 28.8354C33.6721 28.7262 33.4785 28.6597 33.2776 28.6418L30.2085 23.3255C31.19 22.4375 31.2484 21.3781 30.4422 19.9721L21.0052 3.61426L19.9381 4.24909Z" fill="white" fill-opacity="0.8"/>
<path d="M5.9287 17.2615L22.3917 26.7647C23.3927 27.345 23.2836 28.1161 22.9643 28.6731C22.6449 29.23 22.0217 29.7169 21.0169 29.1404L4.55775 19.6334L3.93848 20.7044L20.3236 30.1609C21.679 30.9398 22.8007 30.8424 23.6342 29.935L28.9388 32.9962C28.9639 33.2651 29.0739 33.5191 29.2528 33.7214C29.4316 33.9236 29.6702 34.0639 29.934 34.1217C30.1978 34.1796 30.4731 34.1521 30.7203 34.0432C30.9674 33.9344 31.1735 33.7497 31.3089 33.5161C31.4442 33.2824 31.5018 33.0118 31.4733 32.7432C31.4448 32.4747 31.3317 32.2222 31.1502 32.0221C30.9688 31.8221 30.7285 31.6849 30.464 31.6303C30.1995 31.5758 29.9245 31.6068 29.6788 31.7188L24.3625 28.6497C24.752 27.3917 24.2807 26.4297 22.8903 25.6274L6.53238 16.1943L5.9287 17.2615Z" fill="white" fill-opacity="0.8"/>
<path d="M0.304675 35.5354H19.311C20.4794 35.5354 20.7598 36.2598 20.7598 36.9025C20.7598 37.5451 20.4638 38.2773 19.311 38.2773H0.304675V39.5119H19.2175C20.7754 39.5119 21.7063 38.8576 21.9711 37.658H28.0975C28.2541 37.8753 28.4754 38.0372 28.7298 38.1207C28.9842 38.2042 29.2585 38.2049 29.5133 38.1226C29.7681 38.0404 29.9902 37.8795 30.1478 37.6631C30.3054 37.4466 30.3902 37.1858 30.3902 36.918C30.3902 36.6503 30.3054 36.3895 30.1478 36.173C29.9902 35.9566 29.7681 35.7957 29.5133 35.7134C29.2585 35.6312 28.9842 35.6319 28.7298 35.7154C28.4754 35.7989 28.2541 35.9608 28.0975 36.178H21.9789C21.6985 34.8889 20.8105 34.3008 19.1903 34.3008H0.300781L0.304675 35.5354Z" fill="white" fill-opacity="0.8"/>
</g>
<defs>
<clipPath id="clip0_102_34">
<rect width="182.663" height="74" fill="white" transform="translate(0.168457)"/>
</clipPath>
</defs>
</svg>
