<svg width="276" height="56" viewBox="0 0 276 56" fill="none" xmlns="http://www.w3.org/2000/svg">
<g clip-path="url(#clip0_119_105)">
<path fill-rule="evenodd" clip-rule="evenodd" d="M55.797 56H0V0H55.797V56ZM38.3017 48.5117L42.1571 49.3735L37.9846 46.3095L37.0194 37.6638L34.2947 36.6978L32.6841 34.014L31.6683 27.7874L28.6351 24.5122V21.6622L31.5617 13.0165L28.6351 15.7594L28.579 6.63214L22.7369 17.1534L23.6965 30.0403L16.8499 27.9451L13.6371 33.5831L17.2231 31.7075L17.4925 33.907L24.5552 41.1023L34.0787 42.6034L38.3017 48.5117Z" fill="#3862E0"/>
<path d="M83.7139 8.66825H86.0036V24.5797H83.7139V8.66825ZM83.8289 6.78422L86.3206 3.80469L87.8359 4.69179L84.8924 7.35027L83.8289 6.78422Z" fill="white"/>
<path d="M88.54 20.626L90.7343 19.967C90.7343 22.0566 92.2299 22.7607 93.7255 22.7607C95.2211 22.7607 96.192 22.1017 96.192 21.1921C96.192 18.8067 88.9918 20.6936 88.9918 16.2158C88.9918 14.2614 90.8718 12.9209 93.703 12.9209C96.4417 12.9209 98.2544 14.3515 98.2544 16.444L96.2453 17.1029C96.2453 15.6019 94.8423 15.0781 93.5515 15.0781C92.1934 15.0781 91.2871 15.5569 91.2871 16.2384C91.2787 18.0802 98.4901 17.01 98.4901 21.0569C98.4901 23.3295 96.4529 24.9207 93.4196 24.9207C90.5884 24.9207 88.5513 23.169 88.5513 20.626" fill="white"/>
<path d="M103.258 8.66846H100.971V24.5771H103.258V8.66846Z" fill="white"/>
<path d="M105.505 18.8686C105.505 15.5962 107.702 13.0278 110.94 13.0278C113.544 13.0278 115.808 14.7175 115.808 18.6884V19.9585H107.75C107.75 21.3666 108.951 22.6874 110.943 22.6874C111.582 22.7002 112.21 22.5152 112.74 22.1574C113.271 21.7997 113.679 21.2866 113.909 20.6879L115.926 21.7777C115.292 23.414 113.345 24.8474 110.943 24.8474C107.267 24.853 105.505 22.1692 105.505 18.8686ZM113.589 17.9139C113.589 16.9818 112.932 15.1879 110.85 15.1879C108.631 15.1879 107.792 16.6861 107.792 17.9139H113.589Z" fill="white"/>
<path d="M118.34 13.3065H120.585V15.3511H120.657C120.978 14.6541 121.489 14.0625 122.13 13.6444C122.772 13.2263 123.518 12.9988 124.283 12.9883C126.794 12.9883 128.211 14.8977 128.211 17.7392V24.5797H125.905V18.4207C125.905 16.2156 125.2 15.1483 123.66 15.1483C121.235 15.1483 120.624 17.466 120.624 19.0121V24.5797H118.337L118.34 13.3065Z" fill="white"/>
<path d="M130.759 20.626L132.956 19.967C132.956 22.0566 134.449 22.7607 135.944 22.7607C137.44 22.7607 138.414 22.1017 138.414 21.1921C138.414 18.8067 131.211 20.6936 131.211 16.2158C131.211 14.2614 133.091 12.9209 135.922 12.9209C138.66 12.9209 140.473 14.3515 140.473 16.444L138.458 17.1029C138.458 15.6019 137.055 15.0781 135.762 15.0781C134.404 15.0781 133.497 15.5569 133.497 16.2384C133.497 18.0802 140.7 17.01 140.7 21.0569C140.7 23.3295 138.66 24.9207 135.627 24.9207C132.796 24.9207 130.759 23.169 130.759 20.626Z" fill="white"/>
<path d="M143.229 8.6709H145.515V17.9193L149.884 13.3064H152.898L149.003 17.4433L153.327 24.5796H150.723L147.418 18.9866L145.515 20.9889V24.5796H143.229V8.6709Z" fill="white"/>
<path d="M154.958 20.3978V13.3066H157.244V19.7135C157.244 22.372 158.263 22.6902 159.352 22.6902C162.25 22.6902 162.545 19.6684 162.545 18.1223V13.3066H164.832V24.5714H162.545V21.9214C162.113 23.5801 161.117 24.853 158.897 24.853C156.372 24.853 154.969 23.2619 154.969 20.3978" fill="white"/>
<path d="M84.056 48.1034V42.7386H82.0918V40.5785H84.1542V38.1482L86.3513 36.8752V40.5785H89.7016V42.7386H86.3429V47.8753C86.3878 49.5115 87.0893 50.1282 89.3761 50.0128V51.8996C89.0142 51.9222 88.6746 51.9222 88.3576 51.9222C84.9146 51.9222 84.056 50.7619 84.056 48.1034Z" fill="white"/>
<path d="M90.894 46.1488C90.894 42.8764 93.0238 40.2151 96.4864 40.2151C99.949 40.2151 102.082 42.8764 102.082 46.1488C102.082 49.4213 99.9742 52.1248 96.4864 52.1248C92.9985 52.1248 90.894 49.4438 90.894 46.1488ZM99.7946 46.1488C99.7946 43.8311 98.3439 42.3751 96.4864 42.3751C94.6288 42.3751 93.1809 43.8311 93.1809 46.1488C93.1809 48.4666 94.6316 49.9676 96.4864 49.9676C98.3411 49.9676 99.7946 48.4891 99.7946 46.1488ZM95.4229 38.3311L97.9286 35.3516L99.4439 36.2387L96.5004 38.8971L95.4229 38.3311Z" fill="white"/>
<path d="M104.481 40.5813H106.726V42.6258H106.793C107.115 41.9309 107.625 41.3413 108.266 40.9247C108.907 40.5082 109.652 40.2818 110.416 40.2715C112.927 40.2715 114.344 42.178 114.344 45.0196V51.8601H112.057V45.6927C112.057 43.4904 111.353 42.4202 109.812 42.4202C107.388 42.4202 106.776 44.738 106.776 46.2841V51.8517H104.489L104.481 40.5813Z" fill="white"/>
<path d="M119.745 35.9431H117.458V51.8518H119.745V35.9431Z" fill="white"/>
<path d="M122.234 37.2385C122.234 36.9283 122.326 36.625 122.498 36.3671C122.67 36.1091 122.914 35.9081 123.199 35.7893C123.485 35.6706 123.799 35.6395 124.102 35.7001C124.405 35.7606 124.684 35.91 124.902 36.1294C125.121 36.3487 125.27 36.6282 125.33 36.9325C125.391 37.2368 125.36 37.5522 125.241 37.8388C125.123 38.1255 124.923 38.3704 124.666 38.5428C124.409 38.7152 124.106 38.8072 123.797 38.8072C123.383 38.8064 122.986 38.6409 122.693 38.3469C122.4 38.0529 122.235 37.6543 122.234 37.2385ZM122.666 40.5785H124.953V51.8433H122.666V40.5785Z" fill="white"/>
<path d="M127.375 47.8977L129.572 47.2387C129.572 49.3312 131.068 50.0352 132.56 50.0352C134.053 50.0352 135.03 49.3762 135.03 48.4666C135.03 46.0813 127.83 47.9653 127.83 43.4904C127.83 41.5191 129.71 40.1926 132.538 40.1926C135.279 40.1926 137.092 41.6261 137.092 43.7157L135.075 44.3747C135.075 42.8765 133.672 42.3526 132.381 42.3526C131.023 42.3526 130.116 42.8286 130.116 43.5129C130.116 45.3519 137.317 44.2846 137.317 48.3286C137.317 50.6041 135.279 52.1924 132.246 52.1924C129.415 52.1924 127.375 50.4436 127.375 47.8977Z" fill="white"/>
<path d="M140.76 48.1034V42.7386H138.795V40.5785H140.861V38.1482L143.058 36.8752V40.5785H146.411V42.7386H143.046V47.8753C143.091 49.5115 143.793 50.1282 146.083 50.0128V51.8996C145.718 51.9222 145.378 51.9222 145.061 51.9222C141.621 51.9222 140.76 50.7619 140.76 48.1034Z" fill="white"/>
<path d="M147.959 48.8075C147.959 45.8984 150.429 44.8648 153.51 44.8648H155.409C155.32 42.5922 154.074 42.3866 152.92 42.3866C151.697 42.3866 150.701 43.2962 150.246 44.0003L148.414 42.7949C149.343 41.2038 150.903 40.2266 153.078 40.2266C155.931 40.2266 157.606 41.7952 157.606 45V51.8631H155.409L155.435 49.8917C154.753 51.1872 153.734 52.1644 151.719 52.1644C149.772 52.1644 147.959 50.8915 147.959 48.8244M155.502 46.9376L154.006 46.915C151.537 46.915 150.246 47.4163 150.246 48.7118C150.246 49.5059 151.04 50.0072 152.014 50.0072C154.006 50.0072 155.297 48.9145 155.502 46.9376Z" fill="white"/>
<path d="M160.87 40.5813H163.157V42.6934C163.402 42.0432 163.839 41.4837 164.41 41.0896C164.981 40.6955 165.658 40.4858 166.35 40.4883C167.073 40.4796 167.785 40.6685 168.41 41.0347L167.686 43.2397C167.113 42.8458 166.433 42.6392 165.738 42.6483C163.314 42.6483 163.157 45.6476 163.157 47.1937V51.8517H160.87V40.5813Z" fill="white"/>
<path d="M174.024 51.8293L169.383 40.5786H171.805L175.023 48.8075L178.284 40.5786H180.705L176.019 51.8293V51.8518H174.024V51.8293Z" fill="white"/>
<path d="M181.228 46.1489C181.228 42.8765 183.425 40.3081 186.663 40.3081C189.267 40.3081 191.531 42.0119 191.531 45.9658V47.2388H183.47C183.47 48.6469 184.67 49.9676 186.663 49.9676C187.302 49.9807 187.93 49.7954 188.461 49.437C188.992 49.0787 189.4 48.5648 189.629 47.9653L191.649 49.058C191.015 50.6942 189.067 52.1248 186.668 52.1248C182.998 52.1248 181.233 49.4438 181.233 46.1489M189.317 45.1942C189.317 44.262 188.661 42.4653 186.579 42.4653C184.359 42.4653 183.52 43.9663 183.52 45.1942H189.317Z" fill="white"/>
<path d="M194.067 40.5813H196.354V42.6934C196.6 42.0434 197.037 41.4841 197.608 41.0901C198.178 40.6961 198.855 40.4862 199.547 40.4883C200.271 40.4796 200.983 40.6685 201.607 41.0347L200.883 43.2397C200.31 42.8458 199.63 42.6392 198.936 42.6483C196.511 42.6483 196.354 45.6476 196.354 47.1937V51.8517H194.067V40.5813Z" fill="white"/>
<path d="M201.969 47.0305C201.834 43.8285 203.894 41.3981 206.997 41.3981C209.082 41.3981 210.485 42.4204 211.187 43.6257C211 42.2238 210.514 40.879 209.761 39.683L207.202 40.1139L206.52 38.3989L208.535 38.0581C207.889 37.3707 207.201 36.7254 206.473 36.1262L208.285 35.2166C209.258 35.8988 210.121 36.7259 210.844 37.6695L213.244 37.2611L213.925 38.9649L211.93 39.3085C212.908 40.9601 213.439 42.8396 213.471 44.7606C213.471 49.6495 211.591 52.125 207.763 52.125C204.548 52.125 202.059 50.1029 201.966 47.0333M210.867 46.808C210.867 44.8761 209.183 43.5581 207.267 43.5581C205.454 43.5581 204.256 44.6846 204.256 46.9657C204.256 48.8526 205.659 49.9678 207.606 49.9678C208.029 49.9821 208.45 49.911 208.845 49.7587C209.239 49.6065 209.6 49.3761 209.904 49.0813C210.208 48.7865 210.45 48.4334 210.615 48.0428C210.781 47.6523 210.866 47.2324 210.867 46.808Z" fill="white"/>
<path d="M218.797 35.9431H216.51V51.8518H218.797V35.9431Z" fill="white"/>
<path d="M221.173 48.8075C221.173 45.8984 223.643 44.8648 226.721 44.8648H228.623C228.533 42.5922 227.288 42.3866 226.134 42.3866C224.911 42.3866 223.915 43.2962 223.46 44.0003L221.628 42.7949C222.554 41.2038 224.117 40.2266 226.291 40.2266C229.145 40.2266 230.82 41.7952 230.82 45V51.8631H228.623L228.646 49.8917C227.967 51.1872 226.948 52.1644 224.933 52.1644C222.986 52.1644 221.173 50.8915 221.173 48.8244M228.716 46.9376L227.22 46.915C224.751 46.915 223.46 47.4163 223.46 48.7118C223.46 49.5059 224.254 50.0072 225.228 50.0072C227.22 50.0072 228.511 48.9145 228.716 46.9376Z" fill="white"/>
<path d="M233.969 47.6697V40.5813H236.264V46.9881C236.264 49.6494 237.283 49.9677 238.371 49.9677C241.27 49.9677 241.562 46.9431 241.562 45.397V40.5813H243.84V51.8461H241.551V49.1876C241.121 50.8463 240.125 52.1192 237.903 52.1192C235.377 52.1192 233.974 50.5281 233.974 47.664" fill="white"/>
<path d="M247.148 40.5813H249.393V42.6258H249.452C249.774 41.93 250.286 41.3398 250.928 40.9233C251.57 40.5067 252.316 40.2807 253.08 40.2715C255.606 40.2715 257.009 42.178 257.009 45.0196V51.8601H254.719V45.6927C254.719 43.4904 254.018 42.4202 252.474 42.4202C250.053 42.4202 249.441 44.738 249.441 46.2841V51.8517H247.154L247.148 40.5813Z" fill="white"/>
<path d="M259.554 37.2385C259.554 36.9282 259.645 36.6248 259.817 36.3668C259.989 36.1087 260.233 35.9077 260.519 35.7891C260.805 35.6704 261.119 35.6395 261.423 35.7003C261.726 35.761 262.004 35.9107 262.223 36.1304C262.441 36.35 262.59 36.6298 262.65 36.9342C262.71 37.2387 262.679 37.5542 262.56 37.8408C262.441 38.1274 262.24 38.3721 261.983 38.5442C261.726 38.7162 261.423 38.8077 261.114 38.8072C260.7 38.8057 260.304 38.6398 260.011 38.3459C259.719 38.052 259.554 37.6538 259.554 37.2385ZM259.983 40.5785H262.27V51.8433H259.983V40.5785Z" fill="white"/>
<path d="M265.312 40.5813H267.556V42.6258H267.624C267.945 41.9311 268.455 41.3416 269.095 40.9251C269.736 40.5086 270.48 40.282 271.243 40.2715C273.769 40.2715 275.172 42.178 275.172 45.0196V51.8601H272.885V45.6927C272.885 43.4904 272.183 42.4202 270.64 42.4202C268.219 42.4202 267.607 44.738 267.607 46.2841V51.8517H265.32L265.312 40.5813Z" fill="white"/>
</g>
<defs>
<clipPath id="clip0_119_105">
<rect width="275.16" height="56" fill="white"/>
</clipPath>
</defs>
</svg>
